<svg width="759" height="272" viewBox="0 0 759 272" fill="none" xmlns="http://www.w3.org/2000/svg">
<path d="M142.563 130.86C141.873 128.688 141.165 122.423 141.165 122.423L141.427 122.547L141.984 124.518L143.231 127.879L144.858 131.694C156.103 154.81 179.018 172.816 190.951 177.729C190.951 177.729 191.975 176.453 190.084 179.223C188.194 181.993 187.352 182.625 187.352 182.625C187.352 182.625 153 163.707 142.563 130.86Z" fill="url(#paint0_linear_218_120)"/>
<path d="M189.104 179.06C187.477 180.654 181.997 176.227 181.997 176.227L181.612 175.832L183.963 176.256L184.373 174.912L186.424 176.892L188.686 173.285C195.592 163.118 203.443 137.276 208.055 117.202C210.662 105.851 212.124 90.8882 214.748 88.141C217.372 85.3938 215.039 103.872 215.039 103.872C215.039 103.872 213.724 154.941 189.104 179.06Z" fill="#D65144"/>
<path d="M177.82 183.336C172.081 178.863 166.215 172.373 161.461 166.816C160.759 165.994 157.443 161.344 156.79 161.35C153.162 166.694 149.234 171.939 144.834 176.693C133.694 188.732 125.075 193.949 114.231 177.917C100.354 157.404 89.606 118.814 91.1473 94.1523C91.5086 88.3535 93.9519 82.5936 99.5584 80.2101C112.593 74.6712 134.921 87.792 145.195 95.7482C155.103 103.424 164.383 112.978 170.966 123.658C171.507 124.025 173.269 120.248 173.607 119.687C174.075 118.912 176.115 115.396 176.57 115.112C177.545 114.504 181.68 114.806 181.636 116.513C180.298 121.122 177.345 125.143 175.385 129.514C177.282 133.161 179.396 136.748 180.958 140.561C181.496 141.874 182.925 145.273 183.112 146.469C183.689 148.356 183.689 148.356 184.469 150.825C185.119 152.515 185.044 152.25 185.644 154.332C187.999 162.506 188.89 171.045 189.02 179.544C197.452 168.539 203.16 154.841 207.215 141.596C211.199 128.579 214.126 114.808 214.88 101.175C215.353 92.6629 215.597 70.749 201.141 77.8189C197.451 79.815 197.5 79.6108 197.5 79.6108C197.5 79.6108 197.113 79.7216 197.054 79.6108C196.5 79.5 194 77 194.115 74.6894C202.188 68.5137 213.177 67.4766 218.568 77.4836C225.487 90.3263 220.778 118.762 217.36 132.764C213.832 147.205 205.85 171.57 196.046 182.668C189.649 189.907 184.893 188.841 177.828 183.336H177.82ZM154.324 151.213L154.953 150.94C159.54 144.13 163.624 137.026 167.717 129.915C160.089 117.94 150.214 107.218 138.7 98.8621C131.295 93.4895 121.802 88.0753 112.827 86.0064C98.6434 82.7366 97.5492 90.3626 98.1704 102.223C99.1269 120.425 104.372 140.683 111.645 157.368C113.768 162.241 121.568 178.369 126.013 180.428C128.41 181.54 130.198 180.173 132.09 178.759C132.914 178.143 137.949 173.782 137.946 173.181C130.25 160.331 122.912 146.76 118.839 132.238C118.171 129.852 117.303 126.923 116.955 124.506C116.825 123.606 116.529 121.488 116.646 120.69C116.895 118.957 119.073 117.207 120.794 118.068C121.368 118.354 122.405 121.834 122.678 122.681C123.64 125.662 124.355 128.732 125.348 131.708C129.566 144.353 135.508 156.333 142.354 167.728C142.648 168.03 142.791 167.767 143.025 167.601C143.534 167.234 145.203 165.001 145.731 164.328C148.015 161.425 150.084 158.303 152.148 155.241C145.923 145.325 140.569 133.985 140.775 121.984C141.425 121.984 141.295 121.984 141.315 122.494C143.28 133.169 148.418 142.282 154.324 151.213ZM185.506 181.366C185.275 171.819 183.18 162.158 180.061 153.154C178.041 147.329 175.437 141.336 172.123 136.145L159.816 157.258C163.704 162.187 168.32 166.917 172.9 171.24C176.76 174.886 180.914 178.712 185.509 181.366H185.506Z" fill="#00B7FB"/>
<path d="M354.491 143.49C355.858 143.49 356.838 143.787 357.433 144.381C358.087 144.976 358.413 145.748 358.413 146.699C358.413 148.244 357.938 149.611 356.987 150.8C356.096 151.988 354.669 152.612 352.708 152.672C348.013 152.731 343.794 152.375 340.05 151.602C335.89 160.457 330.868 167.826 324.985 173.71C319.161 179.534 313.396 182.446 307.691 182.446C302.461 182.446 298.539 179.682 295.924 174.155C293.309 168.569 291.823 161.111 291.467 151.78C287.901 162.121 283.86 169.817 279.343 174.869C274.886 179.92 270.132 182.446 265.08 182.446C259.375 182.446 255.066 178.91 252.154 171.838C249.242 164.706 247.786 155.138 247.786 143.133C247.786 134.397 248.559 124.8 250.104 114.34C250.52 111.369 251.263 109.318 252.333 108.189C253.462 107.001 255.215 106.406 257.592 106.406C259.375 106.406 260.742 106.793 261.693 107.565C262.703 108.338 263.208 109.764 263.208 111.844C263.208 112.26 263.149 113.062 263.03 114.251C261.247 126.434 260.356 136.804 260.356 145.362C260.356 153.326 261.039 159.476 262.406 163.815C263.773 168.153 265.615 170.322 267.933 170.322C270.013 170.322 272.509 168.153 275.421 163.815C278.392 159.417 281.334 152.939 284.246 144.381C287.158 135.764 289.624 125.513 291.645 113.627C292.12 110.893 292.982 109.021 294.23 108.011C295.538 106.941 297.291 106.406 299.49 106.406C301.332 106.406 302.669 106.822 303.501 107.654C304.392 108.427 304.838 109.616 304.838 111.22C304.838 112.171 304.779 112.914 304.66 113.449C302.996 123.136 302.164 132.823 302.164 142.509C302.164 149.106 302.372 154.366 302.788 158.288C303.263 162.21 304.125 165.211 305.373 167.291C306.68 169.312 308.552 170.322 310.989 170.322C313.842 170.322 317.021 168.183 320.527 163.904C324.034 159.566 327.243 154.187 330.155 147.769C326.53 145.511 323.796 142.599 321.954 139.033C320.111 135.408 319.19 131.248 319.19 126.553C319.19 121.858 319.903 117.906 321.33 114.697C322.815 111.428 324.806 108.992 327.302 107.387C329.858 105.782 332.681 104.98 335.771 104.98C339.574 104.98 342.576 106.347 344.774 109.081C347.033 111.814 348.162 115.558 348.162 120.313C348.162 127.028 346.706 134.487 343.794 142.688C346.825 143.223 350.39 143.49 354.491 143.49ZM328.194 125.929C328.194 131.753 330.066 136.061 333.81 138.855C336.127 132.199 337.286 126.701 337.286 122.363C337.286 119.867 336.96 118.054 336.306 116.925C335.652 115.737 334.761 115.142 333.631 115.142C332.027 115.142 330.719 116.093 329.709 117.995C328.699 119.837 328.194 122.482 328.194 125.929ZM361.426 134.576C358.93 134.576 357.058 134.011 355.81 132.882C354.562 131.693 353.938 130.059 353.938 127.979C353.938 125.899 354.74 124.176 356.345 122.809C358.009 121.382 360.059 120.669 362.496 120.669C364.695 120.669 366.478 121.204 367.844 122.274C369.211 123.344 369.895 124.859 369.895 126.82C369.895 129.197 369.122 131.099 367.577 132.525C366.032 133.892 363.982 134.576 361.426 134.576ZM360.713 182.446C356.85 182.446 354.027 181.079 352.244 178.345C350.521 175.611 349.659 171.986 349.659 167.47C349.659 164.795 349.986 161.378 350.64 157.218C351.353 152.999 352.244 149.076 353.314 145.451C353.849 143.549 354.562 142.242 355.454 141.529C356.345 140.816 357.771 140.459 359.732 140.459C362.763 140.459 364.279 141.469 364.279 143.49C364.279 144.976 363.714 148.423 362.585 153.831C361.159 160.368 360.446 164.795 360.446 167.113C360.446 168.896 360.683 170.263 361.159 171.214C361.634 172.165 362.436 172.64 363.566 172.64C364.635 172.64 365.972 171.897 367.577 170.411C369.182 168.926 371.321 166.578 373.995 163.369C374.708 162.537 375.511 162.121 376.402 162.121C377.175 162.121 377.769 162.478 378.185 163.191C378.661 163.904 378.898 164.884 378.898 166.132C378.898 168.51 378.334 170.352 377.205 171.659C371.321 178.85 365.824 182.446 360.713 182.446ZM388.267 184.407C385.176 184.407 382.799 183.694 381.135 182.267C379.531 180.841 378.728 179.237 378.728 177.454C378.728 175.909 379.293 174.571 380.422 173.442C381.551 172.313 383.215 171.749 385.414 171.749C386.187 171.749 387.078 171.838 388.088 172.016C389.158 172.135 389.96 172.224 390.495 172.283C390.436 170.738 390.079 169.282 389.426 167.915C388.831 166.548 388.059 165.241 387.108 163.993C386.157 162.686 385.265 161.556 384.433 160.606C382.591 164.112 380.749 167.024 378.907 169.342C377.124 171.659 375.163 173.858 373.023 175.938C371.953 177.008 370.824 177.543 369.636 177.543C368.685 177.543 367.912 177.216 367.318 176.562C366.724 175.849 366.427 174.987 366.427 173.977C366.427 172.789 366.843 171.689 367.675 170.679L368.833 169.252C372.102 165.211 374.568 161.883 376.232 159.268C377.243 157.545 378.431 155.257 379.798 152.404C381.165 149.492 382.502 146.491 383.809 143.401C384.939 140.786 387.286 139.479 390.852 139.479C392.516 139.479 393.675 139.627 394.328 139.924C394.982 140.221 395.309 140.697 395.309 141.351C395.309 141.707 395.19 142.272 394.952 143.044C394.715 143.817 394.388 144.589 393.972 145.362C392.902 147.501 392.367 149.314 392.367 150.8C392.367 151.691 392.664 152.672 393.259 153.742C393.912 154.811 394.893 156.148 396.2 157.753C398.102 160.249 399.528 162.388 400.479 164.171C401.49 165.895 401.995 167.796 401.995 169.876C401.995 170.471 401.935 171.303 401.816 172.373C404.728 171.243 408.146 168.242 412.068 163.369C412.781 162.537 413.583 162.121 414.475 162.121C415.247 162.121 415.842 162.478 416.258 163.191C416.733 163.904 416.971 164.884 416.971 166.132C416.971 168.391 416.406 170.233 415.277 171.659C412.306 175.344 409.453 177.87 406.719 179.237C404.045 180.544 400.717 181.257 396.735 181.376C394.358 183.397 391.535 184.407 388.267 184.407ZM459.203 162.121C459.976 162.121 460.57 162.478 460.986 163.191C461.462 163.904 461.699 164.884 461.699 166.132C461.699 168.51 461.135 170.352 460.006 171.659C457.272 174.809 454.449 177.394 451.537 179.415C448.684 181.435 445.416 182.446 441.731 182.446C438.7 182.446 436.412 181.584 434.867 179.861C433.322 178.078 432.549 175.522 432.549 172.194C432.549 170.53 432.965 167.559 433.797 163.28C434.57 159.536 434.956 156.951 434.956 155.524C434.956 154.574 434.629 154.098 433.976 154.098C433.203 154.098 432.104 155.108 430.677 157.129C429.251 159.09 427.825 161.705 426.398 164.974C424.972 168.242 423.813 171.689 422.922 175.314C421.793 180.069 419 182.446 414.542 182.446C412.76 182.446 411.571 181.822 410.977 180.574C410.442 179.266 410.174 176.949 410.174 173.621C410.174 171.719 410.204 170.203 410.263 169.074L410.353 161.943C410.353 152.791 411.274 143.252 413.116 133.328C415.018 123.403 417.781 115.083 421.406 108.368C425.091 101.593 429.489 98.2052 434.6 98.2052C437.333 98.2052 439.532 99.3937 441.196 101.771C442.92 104.089 443.781 107.12 443.781 110.864C443.781 116.866 442.028 123.106 438.522 129.584C435.016 136.002 429.31 143.52 421.406 152.137C421.228 155.227 421.139 158.407 421.139 161.675C423.1 156.624 425.269 152.523 427.646 149.374C430.083 146.164 432.46 143.876 434.778 142.509C437.155 141.143 439.324 140.459 441.285 140.459C445.148 140.459 447.08 142.391 447.08 146.253C447.08 148.571 446.426 152.761 445.119 158.823C443.989 163.993 443.425 167.41 443.425 169.074C443.425 171.451 444.287 172.64 446.01 172.64C447.199 172.64 448.595 171.927 450.2 170.5C451.864 169.015 454.063 166.638 456.796 163.369C457.51 162.537 458.312 162.121 459.203 162.121ZM432.728 107.03C431.658 107.03 430.469 108.576 429.162 111.666C427.854 114.697 426.577 118.827 425.329 124.057C424.14 129.227 423.16 134.873 422.387 140.994C426.072 136.656 429.102 131.931 431.48 126.82C433.916 121.709 435.135 117.074 435.135 112.914C435.135 111.012 434.927 109.556 434.511 108.546C434.095 107.536 433.5 107.03 432.728 107.03Z" fill="#00B7FB"/>
<path d="M527.572 124.948C527.572 130 525.789 134.368 522.223 138.052C518.658 141.677 513.458 144.292 506.623 145.897C510.308 146.907 513.101 148.571 515.003 150.889C516.905 153.147 517.855 155.762 517.855 158.734C517.855 163.428 516.37 167.499 513.398 170.946C510.486 174.393 506.207 177.067 500.562 178.969C494.916 180.811 488.111 181.733 480.148 181.733C477.176 181.733 474.799 181.643 473.016 181.465C472.957 183.129 472.244 184.377 470.877 185.209C469.51 186.041 467.757 186.457 465.617 186.457C463.478 186.457 461.992 185.982 461.16 185.031C460.388 184.08 460.061 182.683 460.18 180.841C460.714 172.521 461.755 163.815 463.3 154.722C464.845 145.57 466.806 136.745 469.183 128.247C469.599 126.761 470.431 125.721 471.679 125.126C472.927 124.532 474.561 124.235 476.582 124.235C480.207 124.235 482.02 125.245 482.02 127.266C482.02 128.098 481.841 129.049 481.485 130.119C479.94 134.754 478.395 141.053 476.849 149.017C475.304 156.921 474.205 164.468 473.551 171.659C476.404 171.897 478.721 172.016 480.504 172.016C488.824 172.016 494.916 170.827 498.779 168.45C502.701 166.014 504.662 162.923 504.662 159.179C504.662 156.564 503.533 154.366 501.275 152.583C499.076 150.8 495.362 149.819 490.132 149.641C488.943 149.582 488.111 149.284 487.636 148.749C487.16 148.215 486.923 147.353 486.923 146.164C486.923 144.441 487.279 143.044 487.992 141.975C488.706 140.905 490.013 140.34 491.915 140.281C496.134 140.162 499.938 139.538 503.325 138.409C506.772 137.28 509.476 135.705 511.437 133.684C513.398 131.604 514.379 129.197 514.379 126.464C514.379 123.017 512.685 120.313 509.298 118.352C505.91 116.331 500.71 115.321 493.698 115.321C487.339 115.321 481.188 116.153 475.245 117.817C469.302 119.421 464.251 121.472 460.09 123.968C458.189 125.097 456.584 125.661 455.277 125.661C454.207 125.661 453.375 125.305 452.781 124.592C452.246 123.819 451.978 122.868 451.978 121.739C451.978 120.253 452.276 118.976 452.87 117.906C453.524 116.836 455.039 115.618 457.416 114.251C462.408 111.398 468.262 109.17 474.977 107.565C481.693 105.961 488.557 105.158 495.57 105.158C506.326 105.158 514.349 106.971 519.638 110.596C524.927 114.221 527.572 119.005 527.572 124.948ZM564.833 162.121C565.606 162.121 566.2 162.478 566.616 163.191C567.092 163.904 567.329 164.884 567.329 166.132C567.329 168.51 566.765 170.352 565.636 171.659C563.437 174.334 560.317 176.8 556.276 179.058C552.294 181.317 548.015 182.446 543.439 182.446C537.199 182.446 532.355 180.752 528.909 177.365C525.462 173.977 523.738 169.342 523.738 163.458C523.738 159.358 524.6 155.554 526.323 152.048C528.047 148.482 530.424 145.659 533.455 143.579C536.545 141.499 540.022 140.459 543.885 140.459C547.332 140.459 550.095 141.499 552.175 143.579C554.255 145.6 555.295 148.363 555.295 151.87C555.295 155.97 553.809 159.506 550.838 162.478C547.926 165.39 542.963 167.707 535.951 169.431C537.437 172.165 540.259 173.531 544.419 173.531C547.094 173.531 550.125 172.61 553.512 170.768C556.959 168.866 559.93 166.4 562.426 163.369C563.14 162.537 563.942 162.121 564.833 162.121ZM542.369 149.195C540.17 149.195 538.298 150.473 536.753 153.028C535.267 155.584 534.525 158.674 534.525 162.299V162.478C538.031 161.646 540.794 160.398 542.815 158.734C544.835 157.07 545.846 155.138 545.846 152.939C545.846 151.81 545.519 150.919 544.865 150.265C544.271 149.552 543.439 149.195 542.369 149.195ZM591.984 164.795C592.757 164.795 593.351 165.152 593.767 165.865C594.243 166.578 594.48 167.559 594.48 168.807C594.48 170.946 593.975 172.789 592.965 174.334C591.301 176.889 589.102 178.88 586.368 180.306C583.694 181.733 580.485 182.446 576.741 182.446C571.036 182.446 566.608 180.752 563.459 177.365C560.309 173.918 558.734 169.282 558.734 163.458C558.734 159.358 559.596 155.554 561.319 152.048C563.043 148.482 565.42 145.659 568.451 143.579C571.541 141.499 575.018 140.459 578.88 140.459C582.327 140.459 585.091 141.499 587.171 143.579C589.251 145.6 590.291 148.363 590.291 151.87C590.291 155.97 588.805 159.506 585.834 162.478C582.922 165.39 577.93 167.707 570.857 169.431C572.284 172.165 574.691 173.531 578.078 173.531C580.515 173.531 582.506 172.967 584.051 171.838C585.655 170.708 587.498 168.807 589.578 166.132C590.291 165.241 591.093 164.795 591.984 164.795ZM577.365 149.195C575.166 149.195 573.294 150.473 571.749 153.028C570.263 155.584 569.52 158.674 569.52 162.299V162.478C573.027 161.646 575.79 160.398 577.811 158.734C579.831 157.07 580.842 155.138 580.842 152.939C580.842 151.81 580.515 150.919 579.861 150.265C579.267 149.552 578.435 149.195 577.365 149.195Z" fill="#D65144"/>
<defs>
<linearGradient id="paint0_linear_218_120" x1="163.499" y1="120.384" x2="169.331" y2="184.27" gradientUnits="userSpaceOnUse">
<stop stop-color="#D65144"/>
<stop offset="1" stop-color="#D65144"/>
</linearGradient>
</defs>
</svg>
